<?xml version="1.0" encoding="UTF-8"?>
<svg xmlns="http://www.w3.org/2000/svg" xmlns:xlink="http://www.w3.org/1999/xlink" width="30px" height="30px" viewBox="0 0 30 30" version="1.1">
<g id="surface1">
<path style=" stroke:none;fill-rule:nonzero;fill:rgb(96.470588%,69.411767%,20%);fill-opacity:1;" d="M 15 4 C 6.714844 4 0 8.921875 0 15.003906 C 0 21.082031 6.714844 26 15 26 C 23.285156 26 30 21.078125 30 14.996094 C 30 8.917969 23.28125 4 15 4 Z M 15 24.429688 C 7.902344 24.429688 2.148438 20.210938 2.148438 15.003906 C 2.148438 9.792969 7.902344 5.574219 15 5.574219 C 22.097656 5.574219 27.851562 9.792969 27.851562 15.003906 C 27.851562 20.210938 22.097656 24.429688 15 24.429688 Z M 15 24.429688 "/>
<path style=" stroke:none;fill-rule:nonzero;fill:rgb(96.470588%,69.411767%,20%);fill-opacity:1;" d="M 13.328125 10.90625 L 11.378906 10.90625 C 11.21875 10.90625 11.09375 10.808594 11.09375 10.699219 L 11.09375 9.652344 C 11.09375 9.539062 11.222656 9.445312 11.378906 9.445312 L 13.328125 9.445312 C 13.484375 9.445312 13.609375 9.542969 13.609375 9.652344 L 13.609375 10.699219 C 13.617188 10.808594 13.484375 10.90625 13.328125 10.90625 Z M 17.933594 10.90625 L 15.984375 10.90625 C 15.824219 10.90625 15.699219 10.808594 15.699219 10.699219 L 15.699219 9.652344 C 15.699219 9.539062 15.832031 9.445312 15.984375 9.445312 L 17.933594 9.445312 C 18.089844 9.445312 18.214844 9.542969 18.214844 9.652344 L 18.214844 10.699219 C 18.214844 10.808594 18.089844 10.90625 17.933594 10.90625 Z M 9.285156 15.039062 L 6.71875 15.039062 L 6.71875 13.699219 C 6.71875 13.699219 6.820312 11.851562 9.191406 11.824219 L 20.007812 11.824219 L 20.007812 10.734375 L 22.585938 10.734375 L 22.585938 11.789062 C 22.585938 11.789062 22.515625 13.691406 20.132812 13.714844 L 18.222656 13.753906 L 18.25 20.230469 C 18.25 20.230469 18.277344 20.339844 18.101562 20.410156 L 16.113281 20.925781 C 16.113281 20.925781 15.671875 21.058594 15.65625 20.730469 L 15.65625 13.726562 L 13.667969 13.726562 L 13.667969 20.164062 C 13.667969 20.164062 13.722656 20.355469 13.433594 20.445312 L 11.609375 20.917969 C 11.609375 20.917969 11.039062 21.078125 11.042969 20.65625 L 11.042969 13.710938 L 9.296875 13.710938 Z M 9.285156 15.039062 "/>
</g>
</svg>
